<mxfile host="app.diagrams.net" agent="Mozilla/5.0 (Windows NT 10.0; Win64; x64; rv:141.0) Gecko/20100101 Firefox/141.0" version="28.0.7">
  <diagram name="Page-1" id="G_To-kfEnW1Tt4dK6aYy">
    <mxGraphModel dx="1426" dy="787" grid="1" gridSize="10" guides="1" tooltips="1" connect="1" arrows="1" fold="1" page="1" pageScale="1" pageWidth="1100" pageHeight="850" math="0" shadow="0">
      <root>
        <mxCell id="0" />
        <mxCell id="1" parent="0" />
        <mxCell id="4_LO66A1AGEw9mpRM7PJ-1" value="" style="rounded=0;whiteSpace=wrap;html=1;" vertex="1" parent="1">
          <mxGeometry x="40" y="290" width="120" height="60" as="geometry" />
        </mxCell>
        <mxCell id="4_LO66A1AGEw9mpRM7PJ-2" value="" style="rounded=0;whiteSpace=wrap;html=1;" vertex="1" parent="1">
          <mxGeometry x="40" y="500" width="120" height="60" as="geometry" />
        </mxCell>
        <mxCell id="4_LO66A1AGEw9mpRM7PJ-3" value="admin" style="ellipse;whiteSpace=wrap;html=1;" vertex="1" parent="1">
          <mxGeometry x="700" y="450" width="120" height="80" as="geometry" />
        </mxCell>
        <mxCell id="4_LO66A1AGEw9mpRM7PJ-4" value="cooking section admin" style="ellipse;whiteSpace=wrap;html=1;" vertex="1" parent="1">
          <mxGeometry x="680" y="160" width="120" height="80" as="geometry" />
        </mxCell>
        <mxCell id="4_LO66A1AGEw9mpRM7PJ-5" value="database" style="shape=cylinder3;whiteSpace=wrap;html=1;boundedLbl=1;backgroundOutline=1;size=15;" vertex="1" parent="1">
          <mxGeometry x="365" y="320" width="60" height="240" as="geometry" />
        </mxCell>
        <mxCell id="4_LO66A1AGEw9mpRM7PJ-6" value="" style="shape=parallelogram;perimeter=parallelogramPerimeter;whiteSpace=wrap;html=1;fixedSize=1;" vertex="1" parent="1">
          <mxGeometry x="50" y="180" width="120" height="60" as="geometry" />
        </mxCell>
        <mxCell id="4_LO66A1AGEw9mpRM7PJ-7" value="" style="shape=parallelogram;perimeter=parallelogramPerimeter;whiteSpace=wrap;html=1;fixedSize=1;" vertex="1" parent="1">
          <mxGeometry x="40" y="390" width="120" height="60" as="geometry" />
        </mxCell>
        <mxCell id="4_LO66A1AGEw9mpRM7PJ-8" value="" style="shape=parallelogram;perimeter=parallelogramPerimeter;whiteSpace=wrap;html=1;fixedSize=1;" vertex="1" parent="1">
          <mxGeometry x="30" y="620" width="120" height="60" as="geometry" />
        </mxCell>
        <mxCell id="4_LO66A1AGEw9mpRM7PJ-9" value="" style="rhombus;whiteSpace=wrap;html=1;" vertex="1" parent="1">
          <mxGeometry x="50" y="730" width="80" height="80" as="geometry" />
        </mxCell>
        <mxCell id="4_LO66A1AGEw9mpRM7PJ-10" value="" style="rounded=0;whiteSpace=wrap;html=1;" vertex="1" parent="1">
          <mxGeometry x="30" y="880" width="120" height="60" as="geometry" />
        </mxCell>
        <mxCell id="4_LO66A1AGEw9mpRM7PJ-11" value="" style="shape=parallelogram;perimeter=parallelogramPerimeter;whiteSpace=wrap;html=1;fixedSize=1;" vertex="1" parent="1">
          <mxGeometry x="240" y="870" width="120" height="60" as="geometry" />
        </mxCell>
        <mxCell id="4_LO66A1AGEw9mpRM7PJ-12" value="" style="rounded=0;whiteSpace=wrap;html=1;" vertex="1" parent="1">
          <mxGeometry x="240" y="750" width="120" height="60" as="geometry" />
        </mxCell>
        <mxCell id="4_LO66A1AGEw9mpRM7PJ-13" value="" style="shape=parallelogram;perimeter=parallelogramPerimeter;whiteSpace=wrap;html=1;fixedSize=1;" vertex="1" parent="1">
          <mxGeometry x="240" y="610" width="120" height="60" as="geometry" />
        </mxCell>
        <mxCell id="4_LO66A1AGEw9mpRM7PJ-14" value="" style="shape=parallelogram;perimeter=parallelogramPerimeter;whiteSpace=wrap;html=1;fixedSize=1;" vertex="1" parent="1">
          <mxGeometry x="360" y="160" width="120" height="60" as="geometry" />
        </mxCell>
        <mxCell id="4_LO66A1AGEw9mpRM7PJ-15" value="" style="rounded=0;whiteSpace=wrap;html=1;" vertex="1" parent="1">
          <mxGeometry x="360" y="50" width="120" height="60" as="geometry" />
        </mxCell>
        <mxCell id="4_LO66A1AGEw9mpRM7PJ-16" value="" style="shape=parallelogram;perimeter=parallelogramPerimeter;whiteSpace=wrap;html=1;fixedSize=1;" vertex="1" parent="1">
          <mxGeometry x="200" y="60" width="120" height="60" as="geometry" />
        </mxCell>
        <mxCell id="4_LO66A1AGEw9mpRM7PJ-17" value="" style="shape=parallelogram;perimeter=parallelogramPerimeter;whiteSpace=wrap;html=1;fixedSize=1;" vertex="1" parent="1">
          <mxGeometry x="540" y="120" width="120" height="60" as="geometry" />
        </mxCell>
        <mxCell id="4_LO66A1AGEw9mpRM7PJ-18" value="" style="shape=parallelogram;perimeter=parallelogramPerimeter;whiteSpace=wrap;html=1;fixedSize=1;" vertex="1" parent="1">
          <mxGeometry x="530" y="230" width="120" height="60" as="geometry" />
        </mxCell>
        <mxCell id="4_LO66A1AGEw9mpRM7PJ-19" value="" style="shape=parallelogram;perimeter=parallelogramPerimeter;whiteSpace=wrap;html=1;fixedSize=1;" vertex="1" parent="1">
          <mxGeometry x="210" y="300" width="120" height="60" as="geometry" />
        </mxCell>
        <mxCell id="4_LO66A1AGEw9mpRM7PJ-20" value="" style="shape=parallelogram;perimeter=parallelogramPerimeter;whiteSpace=wrap;html=1;fixedSize=1;" vertex="1" parent="1">
          <mxGeometry x="520" y="360" width="120" height="60" as="geometry" />
        </mxCell>
        <mxCell id="4_LO66A1AGEw9mpRM7PJ-21" value="" style="shape=parallelogram;perimeter=parallelogramPerimeter;whiteSpace=wrap;html=1;fixedSize=1;" vertex="1" parent="1">
          <mxGeometry x="510" y="490" width="120" height="60" as="geometry" />
        </mxCell>
        <mxCell id="4_LO66A1AGEw9mpRM7PJ-22" value="" style="shape=parallelogram;perimeter=parallelogramPerimeter;whiteSpace=wrap;html=1;fixedSize=1;" vertex="1" parent="1">
          <mxGeometry x="500" y="620" width="120" height="60" as="geometry" />
        </mxCell>
        <mxCell id="4_LO66A1AGEw9mpRM7PJ-23" value="customer" style="ellipse;whiteSpace=wrap;html=1;" vertex="1" parent="1">
          <mxGeometry x="50" y="50" width="120" height="80" as="geometry" />
        </mxCell>
      </root>
    </mxGraphModel>
  </diagram>
</mxfile>
